HIERARCHY
ROOT Hips
{
  OFFSET -31.5692 30.0904 122.763
  CHANNELS 6 Xposition Yposition Zposition Zrotation Xrotation Yrotation
  JOINT LeftUpLeg
  {
    OFFSET 8.64259 1.95398 -2.38835
    CHANNELS 3 Zrotation Xrotation Yrotation
    JOINT LeftLeg
    {
      OFFSET 43.7702 0 0
      CHANNELS 3 Zrotation Xrotation Yrotation
      JOINT LeftFoot
      {
        OFFSET 40.6238 0 0
        CHANNELS 3 Zrotation Xrotation Yrotation
        JOINT LeftToeBase
        {
          OFFSET 12.7242 0 0
          CHANNELS 3 Zrotation Xrotation Yrotation
          End Site
          {
            OFFSET 0 0 0
          }
        }
      }
    }
  }
  JOINT RightUpLeg
  {
    OFFSET -8.2249 1.95398 -2.59336
    CHANNELS 3 Zrotation Xrotation Yrotation
    JOINT RightLeg
    {
      OFFSET 43.5653 0 0
      CHANNELS 3 Zrotation Xrotation Yrotation
      JOINT RightFoot
      {
        OFFSET 40.6238 0 0
        CHANNELS 3 Zrotation Xrotation Yrotation
        JOINT RightToeBase
        {
          OFFSET 12.7242 0 0
          CHANNELS 3 Zrotation Xrotation Yrotation
          End Site
          {
            OFFSET 0 0 0
          }
        }
      }
    }
  }
  JOINT Spine
  {
    OFFSET 0.165834 0.87714 6.61349
    CHANNELS 3 Zrotation Xrotation Yrotation
    JOINT Spine1
    {
      OFFSET 7.38963 1.71661e-005 0
      CHANNELS 3 Zrotation Xrotation Yrotation
      JOINT Spine2
      {
        OFFSET 11.9445 1.14441e-005 0
        CHANNELS 3 Zrotation Xrotation Yrotation
        JOINT Spine3
        {
          OFFSET 14.7254 4.19617e-005 0
          CHANNELS 3 Zrotation Xrotation Yrotation
          JOINT Spine4
          {
            OFFSET 10.9679 0 0
            CHANNELS 3 Zrotation Xrotation Yrotation
            JOINT RightShoulder
            {
              OFFSET 2.46616 -1.6653 3.69651
              CHANNELS 3 Zrotation Xrotation Yrotation
              JOINT RightArm
              {
                OFFSET 13.0012 0 0
                CHANNELS 3 Zrotation Xrotation Yrotation
                JOINT RightForeArm
                {
                  OFFSET 28.7848 1.62311e-005 0
                  CHANNELS 3 Zrotation Xrotation Yrotation
                  JOINT RightHand
                  {
                    OFFSET 26.5688 1.62095e-005 0
                    CHANNELS 3 Zrotation Xrotation Yrotation
                    End Site
                    {
                      OFFSET 0 0 0
                    }
                  }
                }
              }
            }
            JOINT LeftShoulder
            {
              OFFSET 2.38034 -1.29275 -3.7523
              CHANNELS 3 Zrotation Xrotation Yrotation
              JOINT LeftArm
              {
                OFFSET 16.3182 6.07031e-005 0
                CHANNELS 3 Zrotation Xrotation Yrotation
                JOINT LeftForeArm
                {
                  OFFSET 27.0901 0 0
                  CHANNELS 3 Zrotation Xrotation Yrotation
                  JOINT LeftHand
                  {
                    OFFSET 24.5451 1.51738e-005 0
                    CHANNELS 3 Zrotation Xrotation Yrotation
                    End Site
                    {
                      OFFSET 0 0 0
                    }
                  }
                }
              }
            }
            JOINT Neck
            {
              OFFSET 5.0226 -0.0266342 0
              CHANNELS 3 Zrotation Xrotation Yrotation
              JOINT Head
              {
                OFFSET 6.69364 2.86102e-005 0
                CHANNELS 3 Zrotation Xrotation Yrotation
                End Site
                {
                  OFFSET 0 0 0
                }
              }
            }
          }
        }
      }
    }
  }
}
MOTION
Frames:	15
Frame Time:	0.0416667
311.12 87.2999 325.367 -77.7285 6.54534 -89.4437 -143.858 2.38113 121.364 4.87343 28.5224 -15.4613 -2.03317 -53.6724 -9.70581 167.901 29.2634 -34.6625 151.948 42.802 99.447 -62.9196 0.416744 14.5971 88.8476 -15.2529 -3.32292 19.5858 1.7527 8.84944 -5.90734 14.8683 -94.3001 -3.62806 -13.1814 -9.5875 -15.2626 -13.5888 -8.99504 -37.841 -9.71548 -13.0882 -17.8284 -9.71548 -13.0882 81.0648 -56.9148 -111.834 -10.0721 0.359742 -24.6658 3.10082 -29.0314 -23.2112 -24.211 -0.273497 -8.96275 108.055 -67.9942 -77.9968 27.8268 -48.1556 -96.1155 26.482 26.6645 -41.8747 32.7166 -10.2939 -31.7834 142.995 -15.7763 -16.6069 -66.8599 25.651 7.79373 
303.761 86.3222 319.742 -74.7382 20.5849 -91.5432 -172.132 4.7473 101.625 -53.3004 46.775 14.4773 28.1369 -14.9087 -14.8203 25.2335 -38.935 66.5901 159.001 39.4616 104.535 -64.0694 3.49544 9.39782 92.7166 -17.3451 1.3275 23.6618 0.37759 8.10848 -4.46692 13.9354 -93.4888 -1.43037 -10.1376 -7.46205 -13.0807 -10.4553 -7.00743 -35.6347 -7.43854 -10.155 -15.622 -7.43854 -10.155 87.2923 -48.5121 -105.356 0.391478 0.127538 -28.9513 -14.982 -53.0073 -33.5324 -20.0155 -12.7489 57.1455 76.2612 -74.891 -105.141 36.9293 -32.6348 -76.2181 25.7926 30.1256 -38.0929 38.1543 -12.5815 -32.1888 137.105 -6.13889 -13.7478 -59.7027 23.8346 2.86085 
296.841 83.9463 314.484 -69.5577 36.3941 -95.5687 -173.256 12.9465 99.0806 -72.4807 25.6625 5.13995 63.5905 1.95235 6.28517 0.918285 -19.7382 3.88446 167.163 36.9552 107.031 -66.0396 2.87192 5.62798 99.6101 -21.6958 4.48363 27.4294 -0.966048 7.51484 -2.19286 12.3734 -92.5924 1.95853 -5.37676 -5.17738 -9.71089 -5.59913 -4.93594 -32.207 -3.57606 -6.55015 -12.1944 -3.57605 -6.55017 94.3091 -39.5501 -95.9022 14.8115 0.886891 -38.1613 174.588 29.4032 -168.478 -15.746 -50.0375 -169.963 10.6472 -79.0542 -168.027 31.1021 -7.74772 -55.7751 49.5349 40.552 -57.8467 45.4131 -10.2864 -19.9766 123.361 7.90219 -6.30589 -52.4951 18.8981 -4.61334 
288.623 83.2323 307.755 -65.1571 44.0305 -101.379 -172.092 34.4055 93.2017 -93.091 6.66744 3.7813 70.9591 6.00519 8.30724 23.8133 2.16447 -11.522 172.117 29.214 103.66 -62.417 -2.18448 2.84665 102.653 -25.8036 3.28539 31.167 -2.60256 8.87574 -0.4568 10.3197 -91.8378 6.18883 -1.68732 -3.55018 -5.48551 -1.84185 -3.4726 -27.9842 -0.543227 -3.89263 -7.9716 -0.54322 -3.89263 95.419 -26.2372 -96.8417 28.9946 3.18788 -42.742 -1.77704 27.2069 -7.04508 -22.9849 24.9343 -42.7105 -64.456 -63.672 114.633 7.62058 21.2375 -16.5147 55.3173 35.3494 -60.4819 42.2122 -11.4691 -24.7562 93.981 16.063 5.79606 -41.1794 10.2061 -8.14732 
279.57 83.2903 299.156 -61.2722 45.8651 -108.535 -174.848 56.0647 90.6365 -96.185 -0.706126 3.66565 80.5379 11.5546 6.09139 25.1924 0.89173 -7.19378 173.894 18.8845 98.2111 -54.3555 -5.3361 0.923568 100.169 -26.7786 -0.121642 38.3014 -4.9707 6.10799 1.21995 8.29468 -90.7184 10.2984 2.1021 -1.60821 -1.37201 2.02929 -1.69917 -23.9177 2.48819 -0.901889 -3.90502 2.4882 -0.90189 92.8675 -17.6976 -105.577 17.8759 -13.9832 -36.0663 13.5438 30.0755 0.0109015 -24.3406 9.75707 -40.8899 -82.9625 -38.2393 88.0472 -28.5252 37.5855 35.3905 56.7873 20.9823 -59.1897 49.8623 -14.1744 -25.0544 51.7734 5.27979 11.1575 -19.0992 -1.40513 -3.84024 
268.117 85.5006 286.816 -62.5194 36.9099 -111.059 175.286 69.4535 90.3927 -80.3939 3.84301 2.77894 83.7199 14.4083 2.70583 26.818 -0.217574 -2.0455 173.09 5.57685 93.5309 -37.4965 -8.99565 0.793031 80.5969 -14.3376 -6.19285 47.3905 -8.52168 9.61527 1.80324 7.52547 -89.9692 11.8614 3.60315 -0.263759 0.195383 3.58805 -0.422272 -22.3796 3.51582 0.832674 -2.36691 3.51583 0.83268 94.575 -9.54273 -105.067 5.42286 -45.7581 -34.6407 45.4502 71.7367 -18.5049 -23.5069 13.1428 -50.2462 -85.0074 -23.0423 81.3796 -44.9197 43.21 55.3719 56.0853 14.056 -55.9437 53.9899 -16.6249 -27.2628 36.4018 -5.83185 10.2265 -9.80908 -10.118 -1.177 
251.82 89.7944 272.891 -69.6375 37.2437 -115.884 -171.234 60.7651 72.7088 -55.8841 2.88869 -3.08554 83.7495 13.1505 -1.43727 23.0225 -1.76445 -2.51012 169.523 -13.8985 83.441 -22.9467 -21.5934 -5.14194 60.1786 0.101126 -5.16681 29.0302 -1.84696 9.46477 2.68732 8.15868 -88.5644 10.4888 6.01059 2.28897 -1.16977 6.1055 2.02139 -23.7729 5.04466 3.9924 -3.76024 5.04468 3.9924 95.8878 -7.36992 -102.256 18.9297 -56.5407 -21.5306 74.8361 67.0917 -51.713 -25.3921 14.4139 -51.8831 -85.5115 -19.8408 79.3814 -35.6306 43.5254 47.8555 57.8865 13.8406 -56.6922 53.3153 -18.2967 -30.4201 33.3288 -13.3109 7.02535 -10.1958 -15.5458 -1.29415 
238.874 90.7769 259.237 -70.4899 34.4508 -113.757 -167.915 56.0264 72.4234 -44.2559 10.2207 -7.35515 78.0902 10.8668 -0.367938 23.0151 -3.68227 2.33872 173.198 -12.0854 89.1433 -39.0041 -20.8391 -4.55673 63.0772 -0.930872 2.74728 17.9662 1.90255 10.4453 2.69532 8.04048 -88.5211 10.7339 6.04901 2.38576 -0.924547 6.14811 2.11639 -23.5276 5.05233 4.09618 -3.51496 5.05233 4.09617 93.8312 -14.8484 -104.442 33.0935 -43.9121 -8.20069 36.5203 51.0578 -13.652 -26.6081 14.5885 -52.0268 -86.4934 -30.7844 80.06 -16.7251 37.0235 23.1191 63.3577 23.6483 -61.9871 54.8803 -17.3413 -26.5838 31.6543 -15.8359 3.33267 -8.67267 -16.3608 -1.34096 
225.713 90.6516 245.652 -77.7053 30.43 -108.937 -169.886 42.6153 74.7173 -45.6858 6.9466 -7.09961 69.1962 4.71068 3.78565 29.42 3.13679 -9.11034 169.084 -2.68677 90.923 -68.0477 -10.0423 -0.208612 64.807 -1.55031 -1.44261 16.462 1.50857 13.4877 1.67932 8.3463 -88.5996 10.1351 3.98463 2.44537 -1.5317 4.08839 2.26749 -24.0804 3.06589 3.52984 -4.06775 3.06588 3.52984 91.6406 -24.5679 -105.479 39.5601 -17.8504 -1.74422 17.7471 17.34 0.00995373 -29.0788 11.2623 -43.1172 -89.5046 -44.9325 78.3665 -10.937 25.8477 -0.845905 71.4185 34.2653 -67.1388 41.6327 -13.8722 -30.081 29.5926 -15.4897 -6.08427 -7.32743 -12.551 3.85476 
214.114 88.9605 233.325 -77.921 29.8187 -111.181 -167.857 32.3043 75.4053 -52.8451 6.25423 -6.25794 84.4408 14.5839 -0.590621 33.594 3.05926 -2.96926 169.217 21.4044 90.7568 -98.3253 2.59731 -3.07952 73.1884 -7.05618 -3.2106 18.2175 1.38614 11.8709 0.566173 8.11906 -88.2993 10.6007 1.90938 3.20202 -1.0728 2.04836 3.11498 -23.5779 0.85961 3.62726 -3.56529 0.859614 3.62726 91.6774 -28.0877 -104.027 41.8824 1.4483 11.7889 7.42331 -20.0494 -3.9578 -21.646 3.58568 -30.2086 -91.3729 -48.5252 76.2919 -5.6166 21.4535 -33.9634 81.7637 40.3476 -76.5217 8.74653 -0.635174 -36.3441 27.375 -11.6762 -8.29528 -7.79895 -8.14617 2.03007 
201.007 87.7704 220.715 -82.1323 27.9245 -105.442 -171.175 15.623 86.5083 -48.1957 7.78014 -2.7718 92.7586 20.0706 -3.08423 43.0169 6.28492 0.936921 175.698 41.6172 88.974 -109.321 -3.15666 -4.36697 76.149 -10.3592 -6.72992 19.3093 1.21297 11.0552 -1.20694 8.25439 -88.8516 10.3786 -1.87805 2.44845 -1.29375 -1.76852 2.52866 -23.827 -2.527 1.77108 -3.81431 -2.52702 1.77106 93.4203 -24.0398 -101.826 42.5854 1.62061 32.8212 -12.0602 -33.0855 -38.979 -24.6765 3.57608 -28.854 -88.884 -35.7448 77.1977 -10.3863 2.61628 -57.742 90.2134 39.5728 -86.6802 49.5458 -11.614 -18.6973 26.5515 -4.73749 -8.28057 -6.96229 -1.53444 2.40368 
186.721 89.7521 206.008 -80.7579 33.6824 -99.531 -167.186 -6.84531 93.8989 -25.9126 12.4358 -1.13387 75.9637 12.6008 2.13833 60.2587 13.8261 4.21274 -176.209 55.9324 89.0545 -93.4753 2.08174 -4.61416 79.8692 -11.3516 -6.1447 19.0013 2.04905 8.64688 -2.20617 7.87716 -89.7831 11.1396 -4.28971 0.860781 -0.524693 -4.24766 1.04906 -23.1167 -4.34979 -0.470763 -3.10401 -4.34979 -0.470767 93.4215 -20.0602 -103.235 40.8836 -7.38501 47.7082 -7.68082 -26.4741 -47.0646 -32.6011 5.77068 -31.8728 -84.5729 -19.8717 81.2998 -15.4594 -6.83718 -58.6814 68.2107 34.4645 -72.3802 57.6011 -13.3665 -17.4783 29.9226 3.78093 -8.4118 -14.1561 6.48473 5.62424 
170.944 93.9184 189.759 -78.4224 39.5716 -94.9303 -168.863 -16.5297 99.2139 -18.1654 14.6291 4.49202 51.9612 -4.58049 2.50156 32.9063 3.2538 -4.80381 -173.705 55.7488 91.1849 -61.29 -6.24562 -4.19196 74.6199 -8.77886 -5.24662 20.7759 2.04581 6.12496 -2.43389 7.87169 -91.1307 11.0951 -5.36926 -1.73076 -0.565632 -5.44021 -1.49218 -23.1612 -4.60068 -3.26687 -3.1485 -4.60067 -3.26687 90.6369 -19.5307 -110.035 34.7783 -5.44091 54.8813 -8.81406 -23.593 -47.9939 -29.9734 5.66304 -33.2273 -82.9217 -18.8733 84.941 -13.135 -8.85875 -51.905 70.9275 33.9846 -75.8032 61.6457 -13.9256 -16.14 41.7855 12.7201 -0.796854 -23.9523 11.907 2.59748 
156.21 94.1405 173.858 -77.2784 45.8497 -94.8705 -171.355 -14.6752 95.2561 -40.2227 22.9012 4.8394 58.5583 -0.708535 5.5093 20.6998 -0.507162 -8.35604 -172.893 50.2018 92.9093 -41.9127 -16.5515 -4.33597 74.5349 -10.1112 -3.57766 21.3918 1.58984 6.82363 -1.72796 7.78482 -91.5934 11.2508 -4.18001 -2.75654 -0.416032 -4.29722 -2.56977 -22.962 -3.15896 -3.88515 -2.94939 -3.15893 -3.88515 89.5427 -21.2996 -111.75 34.3123 -2.63899 45.7397 -9.6854 -22.0506 -47.7144 -33.1538 5.48946 -29.3095 -85.4449 -29.0592 81.8949 -5.02515 4.95588 -45.2064 67.9279 35.7265 -72.5516 60.9607 -14.0117 -16.8514 42.4895 15.3908 3.7979 -22.7568 12.2299 1.72104 
142.819 93.0154 157.997 -81.3776 47.325 -93.3344 -169.079 -2.02863 89.6483 -69.4934 10.165 2.44349 59.5755 -1.73137 5.81542 29.0475 3.1246 -9.47749 -177.915 41.5093 94.8874 -42.6729 -12.9436 -2.42826 71.0321 -6.91743 -3.57883 21.0229 2.41273 4.36611 -1.21598 7.96377 -91.4962 10.9044 -3.1129 -2.68342 -0.765244 -3.22793 -2.54382 -23.2954 -2.16298 -3.49441 -3.28277 -2.16297 -3.49441 90.0095 -28.9375 -107.096 30.4327 0.458794 23.7439 -14.3421 -21.02 -49.7291 -36.2424 5.43331 -26.9136 -89.1092 -43.4979 78.5769 -3.8663 18.4283 -28.9031 66.4219 38.4698 -67.4376 58.7886 -13.9584 -17.821 40.1935 14.6729 8.03147 -19.9518 9.90967 0.02261 
